SplineFontDB: 3.0
FontName: Untitled1
FullName: Untitled1
FamilyName: Untitled1
Weight: Medium
Copyright: Created by hn,,, with FontForge 2.0 (http://fontforge.sf.net)
UComments: "2014-5-12: Created." 
Version: 001.000
ItalicAngle: 0
UnderlinePosition: -100
UnderlineWidth: 50
Ascent: 800
Descent: 200
LayerCount: 2
Layer: 0 0 "+gMxmbwAA"  1
Layer: 1 0 "+Uk1mbwAA"  0
XUID: [1021 957 1260883539 14214124]
OS2Version: 0
OS2_WeightWidthSlopeOnly: 0
OS2_UseTypoMetrics: 1
CreationTime: 1399862361
ModificationTime: 1399862682
OS2TypoAscent: 0
OS2TypoAOffset: 1
OS2TypoDescent: 0
OS2TypoDOffset: 1
OS2TypoLinegap: 0
OS2WinAscent: 0
OS2WinAOffset: 1
OS2WinDescent: 0
OS2WinDOffset: 1
HheadAscent: 0
HheadAOffset: 1
HheadDescent: 0
HheadDOffset: 1
OS2Vendor: 'PfEd'
DEI: 91125
Encoding: Original
UnicodeInterp: none
NameList: Adobe Glyph List
DisplaySize: -48
AntiAlias: 1
FitToEm: 1
WinInfo: 0 12 10
BeginChars: 52 52

StartChar: A
Encoding: 0 65 0
Width: 787
Flags: W
HStem: -27 21G<310.5 354.067 577.5 618.714> 633 53<205.921 304.694> 677 20G<624.542 667>
VStem: 50 64<496.218 563.608> 140 69<329.232 417> 396 80<383.856 539.524> 529 80<136.507 602.574>
LayerCount: 2
Fore
SplineSet
428 319 m 1xde
 250 155 l 1
 290 155 315 134 337 112 c 2
 385 64 l 1
 397 65 479 117 529 149 c 1
 529 474 l 2
 529 516 526 562 524 601 c 1
 651 697 l 1xbe
 667 686 l 1
 652 673 631 654 625 644 c 1
 605 618 609 478 609 378 c 0
 609 317 611 257 614 197 c 0
 615 186 616 174 619 165 c 0
 629 139 653 76 671 76 c 0
 687 76 714 92 731 101 c 1
 737 85 l 1
 593 -27 l 1
 562 22 546 71 530 123 c 1
 327 -27 l 1
 294 28 250 77 181 77 c 0
 144 77 112 60 76 37 c 1
 60 48 l 1
 172 133 l 2
 237 183 313 238 353 291 c 0
 387 335 396 398 396 452 c 0
 396 549 324 633 225 633 c 0
 173 633 114 595 114 538 c 0
 114 493 209 446 209 388 c 0
 209 329 145 281 92 255 c 1
 76 266 l 1
 106 283 140 313 140 346 c 0
 140 356 135 365 129 373 c 0
 98 418 50 447 50 506 c 0
 50 546 79 576 107 604 c 0
 131 628 220 686 300 686 c 0
 397 686 476 613 476 516 c 0
 476 448 458 380 428 319 c 1xde
EndSplineSet
EndChar

StartChar: B
Encoding: 1 66 1
Width: 866
Flags: W
HStem: -27 64<513.046 609.897> 48 69<305 340.531> 496 20G<809 816> 628 63<190.395 313.432 553.971 641.5>
VStem: 50 70<500.614 571.052> 135 74<329.658 412.5> 375 84<296.225 520.913> 715 85<124.113 253.776>
LayerCount: 2
Fore
SplineSet
539 -27 m 0
 432 -27 331 48 252 48 c 0
 201 48 151 26 109 0 c 1
 97 21 l 1
 221 94 l 2
 346 167 365 224 368 252 c 0
 371 284 375 355 375 402 c 0
 375 564 280 628 217 628 c 0
 160 628 120 601 120 541 c 0
 120 508 209 436 209 389 c 0
 209 317 119 271 86 255 c 1
 71 266 l 1
 98 281 135 314 135 347 c 0
 135 375 50 439 50 507 c 0
 50 547 73 577 101 605 c 0
 125 629 191 691 284 691 c 0
 342 691 401 635 428 580 c 1
 479 633 554 686 630 686 c 0
 653 686 677 682 694 665 c 0
 724 635 709 505 772 505 c 1
 787 507 802 511 816 516 c 1
 816 494 l 1
 779 479 745 469 713 446 c 2
 624 383 l 1
 734 383 800 318 800 224 c 0
 800 181 793 161 778 123 c 1
 660 24 599 -27 539 -27 c 0
457 350 m 1
 555 385 600 396 685 455 c 1
 661 466 651 510 647 540 c 0
 637 607 613 634 571 634 c 0
 500 634 466 577 449 523 c 1
 455 498 459 442 459 399 c 0
 459 385 458 364 457 350 c 1
422 207 m 1
 305 117 l 1
 413 117 525 37 603 37 c 0
 678 37 715 111 715 175 c 0
 715 274 626 341 534 341 c 0
 507 341 480 336 455 325 c 1
 451 284 441 244 422 207 c 1
EndSplineSet
EndChar

StartChar: C
Encoding: 2 67 2
Width: 654
Flags: W
HStem: -24 70<313.546 458.783> 239 16<211.75 224.978> 527 21G<473.5 506.5> 666 20G<461 503.914>
VStem: 50 80<228.399 447.512> 265 93<462.595 563.656> 295 96<320.132 474.722>
LayerCount: 2
Fore
SplineSet
258 601 m 1xfc
 290 585 l 1
 353 630 425 659 497 686 c 1
 525 605 l 1
 531 591 534 582 554 582 c 0
 570 582 592 587 604 591 c 1
 604 568 l 1
 569 551 526 532 487 527 c 1
 460 543 430 591 407 628 c 1
 362 614 358 570 358 560 c 0xfc
 358 542 364 512 371 492 c 0
 376 476 391 430 391 399 c 0
 391 293 302 252 217 239 c 1
 205 255 l 1
 233 262 258 277 279 298 c 0
 295 314 295 343 295 367 c 0xfa
 295 408 265 481 265 534 c 0
 265 544 266 554 268 564 c 1
 163 561 130 448 130 362 c 0
 130 278 150 193 210 133 c 0
 269 73 352 46 435 46 c 0
 468 46 493 52 507 59 c 2
 593 106 l 1
 593 86 l 1
 551 51 497 15 449 -16 c 1
 422 -22 395 -24 367 -24 c 0
 279 -24 191 4 129 65 c 0
 66 127 50 231 50 319 c 0
 50 382 65 444 93 500 c 1
 144 539 199 575 258 601 c 1xfc
EndSplineSet
EndChar

StartChar: D
Encoding: 3 68 3
Width: 819
Flags: W
HStem: -27 75<457.926 549.49> 64 69<139.516 263.363> 612 78<264.084 511.097>
VStem: 50 21<378 430.703> 236 86<379 452.234> 322 90<218.024 289.233> 694 75<247.243 448.874>
LayerCount: 2
Fore
SplineSet
391 559 m 1xfa
 407 548 l 1
 381 531 322 480 322 442 c 0xfa
 322 402 412 325 412 277 c 0
 412 205 325 157 264 131 c 1
 307 122 356 106 398 91 c 0
 442 75 515 48 535 48 c 0
 599 48 618 82 652 133 c 0
 687 186 694 260 694 325 c 0
 694 396 677 470 625 522 c 0
 558 589 463 612 369 612 c 0
 286 612 197 596 138 536 c 0
 94 492 74 426 71 367 c 1
 50 378 l 1
 50 460 76 535 135 593 c 0
 201 658 305 690 396 690 c 0
 457 690 509 688 575 670 c 0
 687 638 769 528 769 410 c 0
 769 314 748 236 714 147 c 1
 651 78 551 -27 492 -27 c 0
 471 -27 413 -5 380 8 c 0
 317 33 241 64 178 64 c 0
 132 64 95 22 71 -16 c 1
 55 0 l 1
 81 51 118 96 162 133 c 1
 227 133 322 162 322 229 c 0xf6
 322 257 308 282 290 303 c 0
 283 311 236 370 236 388 c 0
 236 465 322 523 391 559 c 1xfa
EndSplineSet
EndChar

StartChar: E
Encoding: 4 69 4
Width: 655
Flags: W
HStem: -24 70<313.505 458.585> 218 16<208 225.458> 527 21G<473 505.5> 666 20G<461 503.914>
VStem: 50 79<227.314 449.603> 264 94<465.506 563.484> 296 94<369 462.584>
LayerCount: 2
Fore
SplineSet
257 601 m 1xfc
 289 585 l 1
 353 630 425 659 497 686 c 1
 525 605 l 1
 532 589 536 582 557 582 c 0
 573 582 593 586 605 590 c 1
 605 568 l 1
 569 551 525 532 486 527 c 1
 460 542 430 590 407 627 c 1
 385 619 359 591 358 566 c 0xfc
 357 546 361 524 367 506 c 0
 382 461 390 437 390 369 c 1
 492 431 l 1
 513 402 539 376 569 356 c 1
 569 347 l 1
 502 309 l 1
 443 351 l 2
 438 354 433 356 428 356 c 0
 414 356 401 350 390 341 c 1
 372 260 289 229 215 218 c 1
 199 234 l 1
 228 239 254 254 279 271 c 1
 295 289 296 319 296 344 c 0xfa
 296 408 264 471 264 532 c 0
 264 542 265 553 268 564 c 1
 163 561 129 448 129 362 c 0
 129 278 149 193 209 133 c 0
 269 73 352 46 435 46 c 0
 491 46 551 80 593 106 c 1
 593 86 l 1
 548 49 499 16 449 -16 c 1
 422 -21 395 -24 367 -24 c 0
 279 -24 191 3 134 60 c 0
 67 126 50 227 50 319 c 0
 50 382 65 444 92 500 c 1
 144 539 198 575 257 601 c 1xfc
EndSplineSet
EndChar

StartChar: F
Encoding: 5 70 5
Width: 710
Flags: W
HStem: -155 35<215 349.383> 162 57<105.824 199> 500 80<494.925 569.341> 617 69<207.575 323.281>
VStem: 98 16<469.188 494.508> 142 76<-76.3105 111.196> 149 83<0.326675 160.292> 274 74<348.638 430.488> 444 80<-10.4973 106.746>
LayerCount: 2
Fore
SplineSet
407 293 m 1xfd80
 529 410 l 1
 552 386 572 361 583 330 c 1
 540 271 l 1
 528 292 512 314 487 314 c 0
 470 314 438 292 416 274 c 1
 503 162 l 1
 519 139 524 103 524 74 c 0
 524 -55 384 -155 258 -155 c 0
 172 -155 142 -77 142 -8 c 0xfd80
 142 25 149 57 149 92 c 0
 149 164 127 162 114 162 c 0
 90 162 66 150 55 144 c 1
 50 165 l 1
 108 204 155 219 181 219 c 0
 217 219 232 173 232 134 c 0xfb80
 232 92 218 50 218 5 c 0
 218 -49 235 -73 247 -85 c 0
 264 -103 286 -120 311 -120 c 0
 397 -120 444 -41 444 37 c 0
 444 87 391 160 354 213 c 0
 321 260 274 321 274 367 c 0
 274 437 358 504 423 543 c 1
 367 577 295 617 236 617 c 0
 160 617 128 530 114 463 c 1
 98 474 l 1
 109 584 170 686 295 686 c 0
 391 686 488 580 567 580 c 0
 591 580 627 617 651 643 c 1
 660 629 l 1
 623 579 567 500 524 500 c 0
 501 500 474 511 451 525 c 1
 394 507 348 470 348 415 c 0
 348 375 381 328 407 293 c 1xfd80
EndSplineSet
EndChar

StartChar: G
Encoding: 6 71 6
Width: 745
Flags: W
HStem: -25 64<307.469 454.531> 213 16<212 223.836> 402 53<420.141 553.5> 672 20G<484.75 516>
VStem: 50 80<230.315 446.017> 265 92<440.919 562.448> 295 91<291.627 399.995> 608 87<200.48 323.968>
LayerCount: 2
Fore
SplineSet
656 606 m 1xfd
 480 452 l 1
 496 454 510 455 525 455 c 0
 582 455 622 432 639 418 c 0
 672 391 695 348 695 303 c 0
 695 224 658 151 602 96 c 1
 448 -8 l 1
 417 -19 397 -25 365 -25 c 0
 279 -25 186 8 134 60 c 0
 66 128 50 224 50 319 c 0
 50 384 66 443 94 502 c 1
 144 538 196 572 256 601 c 1
 288 585 l 1
 400 660 l 1
 410 649 l 1
 383 626 357 596 357 559 c 0
 357 533 373 463 383 422 c 1
 434 449 l 1
 467 471 512 506 541 535 c 1
 494 551 447 588 438 628 c 1
 506 692 l 1
 526 651 564 607 607 607 c 0
 621 607 637 614 652 629 c 1
 656 606 l 1xfd
219 213 m 1
 203 229 l 1
 254 241 295 288 295 348 c 0xfb
 295 416 265 474 265 533 c 0xfd
 265 543 266 553 268 564 c 1
 165 558 130 453 130 367 c 0
 130 279 151 190 213 128 c 0
 265 76 326 39 399 39 c 0
 450 39 494 46 539 83 c 0
 591 126 608 196 608 255 c 0
 608 341 517 402 436 402 c 0
 420 402 403 400 386 396 c 1xfb
 386 352 381 303 349 271 c 0
 313 236 267 221 219 213 c 1
EndSplineSet
EndChar

StartChar: H
Encoding: 7 72 7
Width: 753
Flags: W
HStem: -133 53<457.266 544.442> 36 80<118.832 180.225> 404 64<461.349 551.898> 538 69<427.816 508.675>
VStem: 181 81<397.165 501.242> 282 70<118.569 213.492> 617 86<45.2405 328.038>
LayerCount: 2
Fore
SplineSet
426 -107 m 1
 474 -43 l 1
 485 -65 507 -80 532 -80 c 0
 620 -80 617 92 617 191 c 0
 617 340 569 404 479 404 c 0
 418 404 366 357 324 307 c 1
 345 255 352 209 352 185 c 0
 352 168 351 146 342 134 c 0
 311 92 235 -1 217 -16 c 1
 191 8 157 36 128 36 c 0
 99 36 76 11 62 -4 c 1
 50 10 l 1
 79 62 128 116 169 116 c 0
 201 116 238 86 258 62 c 1
 278 87 280 106 282 131 c 1
 282 217 181 329 181 431 c 0
 181 519 295 609 378 667 c 1
 412 633 456 607 506 607 c 0
 528 607 539 620 592 661 c 1
 605 646 l 1
 562 604 495 538 463 538 c 0
 414 538 358 566 311 590 c 1
 283 562 262 530 262 479 c 0
 262 440 292 376 314 330 c 1
 367 385 429 430 495 468 c 1
 559 468 624 454 676 415 c 1
 692 358 703 299 703 239 c 0
 703 152 696 64 660 -16 c 1
 609 -63 533 -133 495 -133 c 0
 469 -133 444 -125 426 -107 c 1
EndSplineSet
EndChar

StartChar: I
Encoding: 8 73 8
Width: 605
Flags: W
HStem: -27 45<195.5 313.732> 601 85<164.513 303.517>
VStem: 382 89<229.785 473.31> 400 86<130.298 442.969>
LayerCount: 2
Fore
SplineSet
544 671 m 1xd0
 555 655 l 1
 508 611 457 573 400 543 c 1
 319 573 257 601 214 601 c 0
 136 601 92 524 67 456 c 1
 50 467 l 1
 100 601 142 686 236 686 c 0
 278 686 340 657 390 633 c 0
 407 625 424 617 443 617 c 0
 486 617 520 649 544 671 c 1xd0
65 -16 m 1
 60 0 l 1
 92 44 169 124 174 128 c 1
 201 70 206 60 219 47 c 0
 236 30 264 18 288 18 c 0
 376 18 400 127 400 207 c 0xd0
 400 297 382 366 382 429 c 0
 382 441 383 452 384 463 c 1
 424 507 473 553 524 585 c 1
 536 578 l 1
 503 548 471 509 471 464 c 0xe0
 471 376 486 317 486 245 c 0
 486 183 472 119 427 74 c 0
 370 17 296 -27 214 -27 c 0
 177 -27 145 -3 118 21 c 1
 65 -16 l 1
EndSplineSet
EndChar

StartChar: J
Encoding: 9 74 9
Width: 640
Flags: W
HStem: -139 36<292.615 384.561> 80 64<118.035 215> 496 21G<122 150 397.5 445.5> 512 20G<511 553> 602 84<230.295 320.97>
VStem: 397 87<226.862 399.687> 452 74<-3.24471 175.817>
LayerCount: 2
Fore
SplineSet
137 496 m 1xe8
 122 506 l 1
 152 583 213 686 292 686 c 0
 363 686 422 580 489 580 c 0
 525 580 558 596 590 612 c 1
 590 591 l 1
 538 564 461 526 430 516 c 1
 365 529 326 602 260 602 c 0
 199 602 163 544 137 496 c 1xe8
55 60 m 1
 50 73 l 1
 90 106 140 144 186 144 c 0
 244 144 249 101 249 53 c 0
 249 -41 277 -103 345 -103 c 0
 420 -103 452 -30 452 37 c 0xda
 452 149 397 255 397 359 c 0
 397 369 398 379 399 388 c 1
 438 442 485 490 537 532 c 1
 553 522 l 1
 515 484 484 449 484 383 c 0xdc
 484 297 526 140 526 85 c 0xda
 526 -28 418 -139 308 -139 c 0
 272 -139 232 -133 207 -107 c 0
 185 -85 178 -52 175 -22 c 0
 168 40 162 80 122 80 c 0
 102 80 72 71 55 60 c 1
EndSplineSet
EndChar

StartChar: K
Encoding: 10 75 10
Width: 774
Flags: W
HStem: -27 80<560 659.037> 436 64<429.091 527> 495 21G<620 636> 634 47<394.001 544.386>
VStem: 194 81<369.674 535.321> 253 69<129.219 215.069> 620 33<503.006 557.219>
LayerCount: 2
Fore
SplineSet
668 348 m 1xda
 500 272 l 1
 500 271 l 1
 515 271 533 267 546 255 c 0
 582 220 573 53 647 53 c 0
 671 53 701 62 721 77 c 1
 724 60 l 1
 686 22 632 -27 588 -27 c 0
 532 -27 519 37 513 85 c 0
 503 171 488 229 412 229 c 0
 381 229 350 220 322 207 c 1
 322 181 321 154 317 128 c 1
 273 61 213 -2 141 -25 c 1
 102 -22 71 2 50 32 c 1
 107 98 l 1
 117 98 l 1
 130 70 153 36 186 36 c 0
 247 36 253 94 253 144 c 0xd6
 253 243 194 355 194 427 c 0
 194 440 199 455 200 457 c 0
 250 583 366 681 503 681 c 0
 558 681 653 660 653 599 c 0
 653 566 646 532 636 500 c 1xda
 620 495 l 1xba
 620 591 532 634 444 634 c 0
 353 634 275 579 275 490 c 0
 275 456 282 407 295 367 c 1
 351 426 429 500 503 500 c 0
 551 500 567 457 585 409 c 0
 591 393 604 359 641 359 c 0
 646 359 656 361 662 364 c 1
 668 348 l 1xda
323 230 m 1
 362 248 398 262 442 270 c 1
 475 283 510 298 542 314 c 1
 520 327 510 360 503 383 c 0
 493 416 462 436 437 436 c 0
 375 436 331 377 301 327 c 1
 312 299 318 261 323 230 c 1
EndSplineSet
EndChar

StartChar: L
Encoding: 11 76 11
Width: 713
Flags: W
HStem: -27 91<364.633 578.525> 69 74<118.44 222.727> 434 18<625 653> 644 42<352.484 496.5>
VStem: 178 80<438.39 534.199> 271 72<208.5 293.837> 493 93<430.981 554.924> 500 90<467.245 608.271> 647 16<177.306 190.812>
LayerCount: 2
Fore
SplineSet
647 197 m 1xfd80
 663 186 l 1
 628 -2 580 -27 492 -27 c 0
 401 -27 300 14 210 53 c 0
 190 62 168 69 146 69 c 0
 116 69 86 26 62 -15 c 1
 50 0 l 1
 72 53 99 133 161 143 c 1
 192 143 l 1
 230 155 271 190 271 227 c 0
 271 292 178 380 178 468 c 0
 178 490 187 512 197 531 c 0
 254 631 356 686 466 686 c 0
 527 686 590 666 590 571 c 0xfd80
 590 545 586 500 586 483 c 0
 586 455 622 452 653 452 c 1
 653 434 l 1
 533 404 l 1
 519 404 493 425 493 450 c 0xfe80
 493 464 500 501 500 542 c 0
 500 614 450 644 394 644 c 0
 325 644 258 600 258 522 c 0
 258 502 262 485 268 467 c 0
 287 407 343 328 343 267 c 0
 343 233 236 138 227 132 c 1
 307 98 398 64 482 64 c 0
 524 64 568 70 599 101 c 0
 625 127 637 162 647 197 c 1xfd80
EndSplineSet
EndChar

StartChar: M
Encoding: 12 77 12
Width: 1122
Flags: W
HStem: -27 21G<204 237.819 897.952 933.422> 21 83<114.472 186.263 470.998 520.262> 601 59<526.516 637> 628 64<196.32 289.049 824.427 945>
VStem: 51 68<499.932 571.058> 136 74<328.874 420.5> 376 81<245.272 517.96> 641 91<259.744 544.785> 849 80<139.52 397.031>
LayerCount: 2
Fore
SplineSet
444 569 m 0xef80
 483 619 544 660 609 660 c 0xef80
 665 660 692 624 709 577 c 1
 752 628 830 692 902 692 c 0
 988 692 954 560 1027 560 c 0
 1043 560 1058 564 1072 569 c 1
 1072 554 l 1
 1031 533 993 506 961 474 c 1
 931 415 929 342 929 277 c 0
 929 230 929 170 939 138 c 0
 946 116 968 80 993 80 c 0
 999 80 1030 90 1051 101 c 1
 1051 82 l 1
 907 -27 l 1
 850 99 l 1
 849 271 l 2
 849 314 856 357 865 399 c 1
 887 433 914 463 945 490 c 1
 927 492 918 510 902 559 c 0
 886 606 877 628 843 628 c 0xdf80
 786 628 746 591 718 546 c 1
 724 515 732 467 732 436 c 0
 732 330 709 225 668 128 c 1
 545 -22 l 1
 527 -5 495 21 476 21 c 0
 447 21 435 7 417 -14 c 1
 404 0 l 1
 439 50 482 104 508 104 c 0
 527 104 551 90 587 66 c 1
 643 122 641 258 641 367 c 0
 641 464 641 601 540 601 c 0
 494 601 466 566 447 529 c 1
 454 501 457 454 457 447 c 0
 457 334 444 220 385 122 c 1
 215 -27 l 1
 193 -4 158 26 130 26 c 0
 101 26 78 6 61 -16 c 1
 50 0 l 1
 76 44 121 106 167 106 c 0
 199 106 233 76 264 48 c 1
 281 61 298 76 316 94 c 0
 342 120 351 163 359 198 c 0
 371 254 376 310 376 367 c 2
 376 408 l 2
 376 519 313 630 218 630 c 0
 150 630 119 595 119 564 c 0
 119 483 210 452 210 389 c 0
 210 325 146 285 87 255 c 1
 72 266 l 1
 103 283 136 315 136 347 c 0
 136 357 129 366 123 374 c 0
 92 418 51 454 51 507 c 0
 51 547 74 577 102 605 c 0
 126 629 199 691 285 691 c 0
 354 691 412 622 437 561 c 1
 440 563 442 566 444 569 c 0xef80
EndSplineSet
EndChar

StartChar: N
Encoding: 13 78 13
Width: 901
Flags: W
HStem: -22 62<213.5 286.82> 622 63<190.984 321 562.248 652.135>
VStem: 50 67<496.263 564.191> 135 74<322.874 412.5> 394 75<176.197 452.503> 643 76<122.986 414.763>
LayerCount: 2
Fore
SplineSet
443 533 m 1
 456 548 489 594 495 604 c 0
 525 652 588 686 644 686 c 0
 719 686 737 659 751 612 c 0
 765 563 775 554 799 554 c 0
 814 554 831 558 844 565 c 1
 844 551 l 1
 814 530 783 506 756 484 c 0
 719 453 719 341 719 277 c 0
 719 214 729 76 788 76 c 0
 810 76 834 89 851 98 c 1
 851 76 l 1
 707 -29 l 1
 643 104 l 1
 644 271 l 2
 644 311 644 367 650 388 c 0
 659 421 698 456 725 484 c 1
 707 488 699 499 693 507 c 0
 675 531 668 628 607 628 c 0
 534 628 483 553 454 501 c 1
 461 459 469 394 469 351 c 0
 469 273 462 192 426 122 c 0
 421 113 413 98 410 96 c 0
 362 53 276 -22 231 -22 c 0
 196 -22 163 8 145 36 c 1
 201 101 l 1
 213 101 l 1
 222 77 245 40 284 40 c 0
 312 40 333 60 352 79 c 0
 390 117 394 203 394 266 c 0
 394 387 366 507 335 550 c 0
 308 588 264 622 217 622 c 0
 164 622 117 608 117 551 c 0
 117 489 209 442 209 383 c 0
 209 319 145 279 86 249 c 1
 71 260 l 1
 102 277 135 309 135 341 c 0
 135 351 128 360 122 368 c 0
 91 412 50 448 50 501 c 0
 50 541 73 571 101 599 c 0
 125 623 191 685 284 685 c 0
 358 685 417 612 443 533 c 1
EndSplineSet
EndChar

StartChar: O
Encoding: 14 79 14
Width: 835
Flags: W
HStem: -27 63<372.459 520.229> 37 75<199 242.117> 709 20G<363 391>
VStem: 119 85<397.5 502.5> 226 74<195.433 268.881> 306 75<622 707.5> 694 91<228.332 476.211>
LayerCount: 2
Fore
SplineSet
471 596 m 1
 385 593 l 1
 354 593 306 605 306 639 c 0
 306 679 351 698 375 729 c 1
 391 729 l 1
 386 722 381 712 381 703 c 0
 381 671 449 670 545 662 c 0
 737 645 785 531 785 399 c 0
 785 299 768 175 694 112 c 1
 621 45 522 -27 428 -27 c 0
 373 -27 318 -16 268 5 c 0
 235 18 199 37 162 37 c 0
 123 37 88 16 66 -16 c 1
 50 0 l 1
 78 37 108 73 141 106 c 1
 185 121 226 157 226 207 c 0
 226 241 202 274 183 303 c 0
 145 359 119 385 119 410 c 0
 119 485 187 551 253 591 c 1
 274 580 l 1
 244 558 204 521 204 484 c 0
 204 419 300 329 300 261 c 0
 300 201 245 151 199 112 c 1
 211 112 227 108 238 104 c 0
 326 76 403 36 499 36 c 0
 649 36 694 185 694 330 c 0
 694 547 598 596 471 596 c 1
EndSplineSet
EndChar

StartChar: P
Encoding: 15 80 15
Width: 898
Flags: W
HStem: -11 73<569.988 675.745> 80 74<257.064 373.806> 522 16<835.819 845.188> 622 63<190.868 287.456> 633 59<594.235 740>
VStem: 50 65<495.9 564.665> 135 74<322.874 414> 375 79<-146.094 37 146 511.633> 646 74<337.465 400.092> 744 51<122.28 250.5>
LayerCount: 2
Fore
SplineSet
454 509 m 1xefc0
 454 122 l 1
 455 122 l 1
 599 75 622 62 663 62 c 0
 707 62 744 90 744 138 c 0
 744 204 646 278 646 346 c 0
 646 392 696 433 734 464 c 1
 698 472 680 501 678 554 c 0
 676 606 662 633 614 633 c 0
 538 633 490 565 454 509 c 1xefc0
442 540 m 1
 490 612 589 692 683 692 c 0xefc0
 797 692 728 530 806 530 c 0
 818 530 831 534 843 538 c 1
 848 522 l 1
 798 496 720 440 720 399 c 0
 720 338 795 288 795 213 c 0
 795 107 701 -11 603 -11 c 0
 593 -11 582 -8 572 -5 c 2
 454 37 l 1
 454 -25 457 -87 465 -149 c 1
 459 -154 401 -196 369 -219 c 1
 348 -208 l 1
 369 -157 375 -28 375 63 c 1
 342 73 312 80 295 80 c 0
 239 80 204 26 172 -16 c 1
 162 5 l 1
 196 73 241 154 327 154 c 0
 340 154 357 151 375 146 c 1
 375 396 l 2
 375 509 317 622 217 622 c 0
 158 622 115 602 115 551 c 0
 115 486 209 445 209 383 c 0
 209 319 145 279 86 249 c 1
 71 260 l 1
 102 277 135 309 135 341 c 0
 135 351 128 360 122 368 c 0
 91 412 50 448 50 501 c 0
 50 541 73 571 101 599 c 0
 125 623 190 685 284 685 c 0xf7c0
 357 685 419 608 442 540 c 1
EndSplineSet
EndChar

StartChar: Q
Encoding: 16 81 16
Width: 872
Flags: W
HStem: -27 64<370.437 519.923> 37 76<198 242.07> 709 20G<355 391>
VStem: 119 85<397.5 502.5> 226 74<195.122 268.881> 306 75<622 707.5> 694 91<234.278 476.211>
LayerCount: 2
Fore
SplineSet
471 596 m 1xbe
 385 593 l 1
 354 593 306 605 306 639 c 0
 306 647 306 660 317 671 c 2
 375 729 l 1
 391 729 l 1
 386 722 381 712 381 703 c 0
 381 672 452 670 545 662 c 0
 737 645 785 531 785 399 c 0
 785 296 763 174 694 112 c 0
 677 97 660 82 642 68 c 1
 671 36 709 -6 748 -6 c 0
 775 -6 800 6 822 21 c 1
 822 -6 l 1
 705 -69 l 1
 652 -53 592 -28 552 10 c 1
 550 9 l 2
 512 -11 471 -27 428 -27 c 0xbe
 373 -27 319 -16 268 5 c 0
 235 18 199 37 162 37 c 0
 123 37 88 16 66 -16 c 1
 50 0 l 1
 78 37 108 73 141 106 c 1
 185 121 226 157 226 207 c 0
 226 241 202 274 183 303 c 0
 145 359 119 385 119 410 c 0
 119 485 187 551 253 591 c 1
 274 580 l 1
 244 558 204 521 204 484 c 0
 204 419 300 329 300 261 c 0
 300 202 243 147 198 113 c 1x7e
 210 113 227 108 238 104 c 0
 325 77 401 37 495 37 c 0
 569 37 633 78 664 146 c 0
 690 203 694 268 694 330 c 0
 694 547 598 596 471 596 c 1xbe
EndSplineSet
EndChar

StartChar: R
Encoding: 17 82 17
Width: 899
Flags: W
HStem: -27 21G<204 242.5 705.06 742.337> 26 80<115.944 178.259> 504 13<813.755 825.769> 623 63<192.572 321.5 567.201 679.5>
VStem: 52 70<493.057 565.096> 137 74<323.874 412> 377 81<296.864 514.124> 655 66<136.368 300.037>
LayerCount: 2
Fore
SplineSet
455 348 m 1
 476 359 525 381 570 388 c 1
 699 463 l 1
 686 464 672 469 662 479 c 0
 640 501 661 628 588 628 c 0
 527 628 489 574 453 512 c 1
 454 507 458 464 458 451 c 0
 458 418 458 382 455 348 c 1
441 548 m 1
 445 553 l 2
 498 620 563 686 652 686 c 0
 707 686 726 642 732 591 c 0
 735 565 719 513 784 513 c 0
 797 513 810 515 822 517 c 1
 829 504 l 1
 765 480 687 442 619 388 c 1
 670 388 695 373 721 351 c 1
 724 285 728 181 737 154 c 0
 747 123 766 69 790 69 c 0
 795 69 829 82 849 90 c 1
 849 74 l 1
 716 -27 l 1
 652 90 l 1
 653 121 655 150 655 179 c 0
 655 277 638 296 626 308 c 0
 605 329 572 343 543 343 c 0
 520 343 478 332 451 324 c 1
 441 248 423 180 383 119 c 1
 327 74 270 19 215 -27 c 1
 193 -5 155 26 134 26 c 0
 103 26 79 8 61 -16 c 1
 50 0 l 1
 74 38 116 106 167 106 c 0
 201 106 237 74 261 48 c 1
 368 121 377 236 377 367 c 0
 377 414 376 493 337 551 c 0
 311 590 266 623 219 623 c 0
 163 623 122 597 122 536 c 0
 122 495 211 440 211 384 c 0
 211 320 147 280 88 250 c 1
 73 261 l 1
 104 278 137 310 137 342 c 0
 137 352 130 361 124 369 c 0
 93 413 52 449 52 502 c 0
 52 542 75 572 103 600 c 0
 127 624 193 686 286 686 c 0
 357 686 417 613 441 548 c 1
EndSplineSet
EndChar

StartChar: S
Encoding: 18 83 18
Width: 800
Flags: W
HStem: -27 53<336.7 510.478> 309 58<309.873 464.152> 341 69<479.689 618.485> 495 13<331.838 340> 511 21G<562 636.5> 669 20G<372.5 467.5>
VStem: 50 83<245.994 429.148> 223 75<380.103 449.748> 671 74<169.339 285.239> 731 19<644.158 659.053>
LayerCount: 2
Fore
SplineSet
333 508 m 1xdf80
 346 495 l 1
 313 485 298 456 298 426 c 0
 298 387 325 367 362 367 c 0xdf80
 421 367 536 410 607 410 c 0
 681 410 745 359 745 277 c 0xbf80
 745 68 545 -27 367 -27 c 0
 291 -27 212 -7 157 48 c 0
 89 116 50 212 50 309 c 0
 50 406 89 495 158 564 c 0
 225 632 326 670 419 689 c 1
 516 637 594 591 649 591 c 0
 699 591 719 629 731 666 c 1
 750 655 l 1xdf40
 730 576 672 538 601 511 c 1
 523 518 420 628 330 628 c 0
 212 628 133 494 133 378 c 0
 133 196 251 26 449 26 c 0
 513 26 578 31 624 77 c 0
 656 109 671 161 671 207 c 0
 671 278 628 341 548 341 c 0xbf80
 478 341 396 309 319 309 c 0
 268 309 223 337 223 388 c 0
 223 449 279 493 333 508 c 1xdf80
EndSplineSet
EndChar

StartChar: T
Encoding: 19 84 19
Width: 752
Flags: W
HStem: -27 21G<435 506> 48 70<237.708 337.252> 575 74<437.554 634.675> 623 63<197.988 392.285> 683 20G<688.5 702>
VStem: 50 50<461.345 541.523> 410 69<197.232 258.479>
LayerCount: 2
Fore
SplineSet
633 133 m 1xee
 644 117 l 1
 594 60 538 4 474 -27 c 1
 396 -17 335 48 261 48 c 0
 219 48 173 16 138 -11 c 1
 128 5 l 1
 166 45 207 82 250 117 c 1
 260 118 270 118 280 118 c 0
 299 118 317 117 335 112 c 1
 370 132 410 169 410 207 c 0
 410 263 299 339 287 404 c 1
 304 478 356 544 410 596 c 1
 358 614 304 623 250 623 c 0
 184 623 100 600 100 516 c 0
 100 477 129 445 165 431 c 1
 101 367 l 1
 69 392 50 425 50 465 c 0
 50 520 91 583 132 621 c 0
 181 667 242 686 309 686 c 0xd6
 407 686 506 649 596 649 c 0
 638 649 675 672 702 703 c 1
 702 681 l 1
 633 591 l 1
 612 578 588 575 564 575 c 0
 526 575 473 580 436 589 c 1
 406 566 362 517 362 463 c 0
 362 404 479 333 479 255 c 0
 479 200 410 142 363 103 c 1
 406 83 461 58 500 58 c 0
 547 58 597 97 633 133 c 1xee
EndSplineSet
EndChar

StartChar: U
Encoding: 20 85 20
Width: 792
Flags: W
HStem: -27 75<314.833 416.602> 677 20G<259 305 622.778 667>
VStem: 135 85<474.603 563.686> 236 69<214.827 319.806> 524 85<347.66 596> 534 75<136.154 488.157>
LayerCount: 2
Fore
SplineSet
531 120 m 1xf4
 417 -6 l 1
 400 -19 380 -27 359 -27 c 0
 270 -27 193 37 114 37 c 0
 95 37 73 12 60 -6 c 1
 50 11 l 1
 130 101 l 1
 154 103 180 129 199 149 c 0
 225 176 236 213 236 250 c 0
 236 321 135 425 135 506 c 0
 135 562 223 656 295 697 c 1
 305 681 l 1
 264 651 220 607 220 554 c 0
 220 478 305 386 305 293 c 0
 305 267 301 241 290 218 c 1
 189 106 l 1
 255 106 340 48 391 48 c 0
 442 48 515 123 529 165 c 0
 534 181 534 221 534 250 c 0xf4
 534 366 532 481 524 596 c 1
 651 686 l 1
 667 676 l 1
 608 617 609 537 609 463 c 2xf8
 609 261 l 2
 609 245 615 79 682 79 c 0
 706 79 732 94 742 101 c 1
 742 80 l 1
 598 -27 l 1
 531 120 l 1xf4
EndSplineSet
EndChar

StartChar: V
Encoding: 21 86 21
Width: 897
Flags: W
HStem: -27 59<503.604 601.091> 90 64<198.34 300.706> 623 63<190.454 287.2 577.439 662>
VStem: 50 67<496.8 566.012> 135 74<323.874 414.5> 375 79<312.203 511.969> 671 75<263.695 468.385> 682 90<126.65 378.516>
LayerCount: 2
Fore
SplineSet
399 224 m 1xfd
 306 151 l 1
 345 148 375 129 437 90 c 0
 503 49 551 32 580 32 c 0
 677 32 682 126 682 207 c 0xfd
 682 261 671 329 671 394 c 0xfe
 671 417 675 441 682 463 c 1
 756 548 l 1
 694 548 652 617 586 617 c 0
 557 617 520 581 520 581 c 1
 492 554 470 522 454 486 c 1
 454 386 440 304 399 224 c 1xfd
501 601 m 0
 536 641 596 686 644 686 c 0
 680 686 711 669 740 649 c 0
 777 622 805 617 821 617 c 0
 830 617 839 619 847 623 c 1
 847 607 l 1
 790 568 746 507 746 436 c 0xfe
 746 363 772 269 772 218 c 0
 772 166 749 101 708 71 c 2
 591 -14 l 2
 576 -25 556 -28 538 -27 c 1
 508 -27 462 -18 389 26 c 0
 369 38 279 90 235 90 c 0
 186 90 143 63 112 26 c 1
 101 42 l 1
 139 85 181 124 229 154 c 1
 347 154 375 280 375 403 c 1
 373 513 316 623 217 623 c 0
 161 623 117 606 117 552 c 0
 117 487 209 445 209 384 c 0
 209 320 145 280 86 250 c 1
 71 261 l 1
 102 278 135 310 135 342 c 0
 135 352 128 361 122 369 c 0
 91 413 50 449 50 502 c 0
 50 542 73 572 101 600 c 0
 125 624 191 686 284 686 c 0
 362 686 421 606 446 526 c 1
 459 548 474 570 501 601 c 0
EndSplineSet
EndChar

StartChar: W
Encoding: 22 87 22
Width: 1134
Flags: W
HStem: -25 57<740.232 838.794> 48 74<157.258 237.283> 623 63<190.631 287.015 814.189 878.098>
VStem: 50 67<494.906 565.775> 135 74<323.874 415> 375 79<319.151 512.374> 636 72<227.52 495.715> 903 80<95.6589 182.889 189.279 486.012> 915 83<115.128 409.173>
LayerCount: 2
Fore
SplineSet
924 485 m 1xff
 983 548 l 1xff
 940 548 887 617 823 617 c 0
 774 617 729 566 704 530 c 1
 706 497 708 462 708 427 c 0
 708 348 700 271 679 200 c 1
 665 181 623 125 600 101 c 1
 661 101 759 32 823 32 c 0
 855 32 881 47 897 74 c 0
 908 92 915 119 915 186 c 0xfe80
 915 256 903 323 903 391 c 0
 903 449 911 468 924 485 c 1xff
381 191 m 1
 339 157 300 132 263 110 c 1
 308 75 366 42 423 42 c 0
 483 42 536 70 578 112 c 0
 630 163 636 276 636 362 c 0
 636 451 609 568 525 605 c 1
 497 580 468 554 447 525 c 1
 448 516 454 487 454 476 c 0
 454 439 444 286 381 191 c 1
438 551 m 1
 450 564 l 2
 492 610 539 649 588 686 c 1
 641 656 680 590 695 559 c 1
 745 612 816 686 876 686 c 0
 942 686 987 620 1047 620 c 0
 1059 620 1072 623 1084 628 c 1
 1078 607 l 1
 1020 564 983 523 983 434 c 0xff
 983 360 998 287 998 213 c 0xfe80
 998 188 996 162 989 139 c 0
 970 81 844 -25 763 -25 c 0
 681 -25 604 37 525 37 c 1
 484 18 444 -2 407 -27 c 1
 402 -27 396 -28 391 -28 c 0
 346 -28 301 -12 264 11 c 0
 237 28 202 48 178 48 c 0
 146 48 102 14 75 -11 c 1
 61 5 l 1
 98 48 139 87 184 122 c 1
 187 122 l 2
 334 122 375 267 375 402 c 1
 373 512 316 623 217 623 c 0
 162 623 117 607 117 554 c 0
 117 482 209 446 209 384 c 0
 209 320 145 280 86 250 c 1
 71 261 l 1
 102 278 135 310 135 342 c 0
 135 352 128 361 122 369 c 0
 91 413 50 449 50 502 c 0
 50 542 73 572 101 600 c 0
 125 624 191 686 284 686 c 0
 354 686 414 615 438 551 c 1
EndSplineSet
EndChar

StartChar: X
Encoding: 23 88 23
Width: 782
Flags: W
HStem: -22 70<132.913 197.559 531.066 600.22> 325 42<220 356.235 430.157 573.167> 333 34<220 359 428 564.843> 512 36G<101 134 612.5 665.172> 594 92<249 299.692>
VStem: 359 69<184.514 333 367 496.965>
LayerCount: 2
Fore
SplineSet
101 527 m 1xbc
 249 686 l 1
 293 684 338 670 369 639 c 0
 399 609 411 563 422 522 c 0
 422 520 423 518 423 516 c 1
 462 597 531 656 611 689 c 1
 632 649 647 588 689 588 c 0
 700 588 718 597 732 604 c 1
 732 585 l 1
 630 527 l 1
 595 543 546 586 535 616 c 1
 459 565 428 459 428 367 c 1
 604 367 l 1xbc
 567 325 l 1xdc
 521 331 474 332 428 333 c 1
 428 236 454 53 593 53 c 0
 632 53 667 74 699 96 c 1
 699 74 l 1
 588 -16 l 1
 572 -21 551 -27 540 -27 c 0
 445 -27 397 70 380 154 c 1
 338 112 l 2
 305 79 270 47 231 21 c 0
 203 2 167 -22 135 -22 c 0
 99 -22 69 2 50 32 c 1
 109 101 l 1
 124 70 153 48 188 48 c 0
 226 48 261 69 287 95 c 0
 346 154 359 246 359 333 c 1xbc
 300 333 242 333 183 325 c 1
 220 367 l 1xdc
 359 367 l 1
 359 403 359 438 354 474 c 0
 346 527 304 594 247 594 c 0
 189 594 150 553 118 512 c 1
 101 527 l 1xbc
EndSplineSet
EndChar

StartChar: Y
Encoding: 24 89 24
Width: 815
Flags: W
HStem: -219 48<376.193 484.071> -21 79<350.148 440.191> 54 70<148.796 239.24> 623 63<193.218 287.879>
VStem: 52 66<497.201 565.842> 137 74<323.874 414> 377 79<312.659 511.799> 685 80<106.469 510.669>
LayerCount: 2
Fore
SplineSet
377 397 m 0xbf
 377 507 320 623 219 623 c 0
 154 623 118 599 118 551 c 0
 118 490 211 444 211 384 c 0
 211 320 147 280 88 250 c 1
 73 261 l 1
 104 278 137 310 137 342 c 0
 137 352 130 361 124 369 c 0
 93 413 52 449 52 502 c 0
 52 542 75 572 103 600 c 0
 127 624 192 686 286 686 c 0
 360 686 423 608 445 537 c 1
 450 542 l 2
 505 597 571 653 642 686 c 1
 671 650 710 622 749 596 c 1
 765 516 765 426 765 341 c 0
 765 220 754 88 700 -16 c 1
 632 -120 499 -219 386 -219 c 0
 335 -219 273 -200 253 -149 c 1
 320 -78 l 1
 330 -78 l 1
 340 -128 386 -171 440 -171 c 0
 502 -171 535 -150 575 -111 c 0
 674 -15 685 159 685 314 c 0
 685 386 681 458 658 527 c 1
 632 556 604 586 568 601 c 1
 560 598 492 566 452 512 c 1
 455 498 456 482 456 468 c 0
 454 377 438 285 386 207 c 1
 270 115 l 1
 325 99 372 58 424 58 c 0
 458 58 487 81 509 106 c 1
 518 90 l 1
 485 47 437 -21 394 -21 c 0xdf
 364 -21 318 2 287 20 c 0
 250 41 211 54 187 54 c 0
 141 54 97 22 61 -4 c 1
 50 11 l 1
 87 50 132 89 172 124 c 1
 194 124 224 124 240 122 c 1
 340 177 377 282 377 397 c 0xbf
EndSplineSet
EndChar

StartChar: Z
Encoding: 25 90 25
Width: 622
Flags: W
HStem: -139 30<231 347.674> -16 53<111.692 209> 298 74<263 320.501> 319 59<287.266 413.014> 601 75<208.41 405.019> 709 20G<184.625 215>
VStem: 151 85<-99.8713 -20.0391> 423 85<514.933 624> 481 91<69.1641 252.163>
LayerCount: 2
Fore
SplineSet
220 309 m 1xee80
 263 372 l 1
 344 377 423 460 423 543 c 0
 423 582 382 601 348 601 c 0
 300 601 222 591 199 591 c 0
 171 591 130 596 130 633 c 1
 199 729 l 1
 215 729 l 1
 211 722 207 713 207 705 c 0
 207 671 257 671 290 671 c 0
 313 671 362 676 396 676 c 0
 461 676 508 652 508 596 c 0
 508 496 416 423 336 374 c 1
 341 372 l 1xef
 357 375 381 378 396 378 c 0
 457 378 521 361 556 309 c 1
 567 272 572 235 572 197 c 0
 572 109 541 25 492 -48 c 1
 423 -105 337 -139 247 -139 c 0
 215 -139 183 -136 151 -128 c 1
 151 -57 156 -16 114 -16 c 0
 103 -16 78 -30 62 -42 c 1
 50 -27 l 1
 90 6 140 37 188 37 c 0
 230 37 236 25 236 -43 c 0
 236 -93 256 -109 298 -109 c 0
 436 -109 481 46 481 159 c 0
 481 279 407 319 322 319 c 0xde80
 290 319 259 312 231 298 c 1
 220 309 l 1xee80
EndSplineSet
EndChar

StartChar: a
Encoding: 26 97 26
Width: 532
Flags: W
HStem: -27 21G<346.671 381.364> 451 20G<207.113 253>
VStem: 50 80<94.3359 362.907> 314 79<119 364.225>
LayerCount: 2
Fore
SplineSet
314 91 m 1
 139 -36 l 1
 109 -4 80 30 52 65 c 1
 50 95 50 126 50 156 c 0
 50 226 55 297 70 365 c 1
 239 471 l 1
 267 452 299 438 332 431 c 1
 399 465 l 1
 407 459 l 1
 397 392 392 324 392 256 c 0
 392 210 392 165 393 119 c 1
 429 74 l 1
 450 81 461 87 475 96 c 1
 482 83 l 1
 359 -27 l 1
 314 46 l 1
 314 91 l 1
314 119 m 1
 313 365 l 1
 266 365 217 378 171 392 c 1
 130 350 130 262 130 201 c 0
 130 174 131 148 133 121 c 1
 142 110 184 55 200 55 c 0
 215 55 254 78 314 119 c 1
EndSplineSet
EndChar

StartChar: b
Encoding: 27 98 27
Width: 458
Flags: W
HStem: 450 20G<264 307> 666 20G<191.414 236>
VStem: 57 17<640.294 668> 64 78<102.405 347.659 365 588.594> 327 81<99.6452 372.793>
LayerCount: 2
Fore
SplineSet
99 599 m 1xe8
 219 686 l 1
 236 673 l 2
 235 673 216 656 206 647 c 0
 128 580 141 464 141 365 c 1
 148 363 l 1
 193 401 240 440 288 470 c 1
 326 448 365 427 405 409 c 1
 407 377 408 345 408 313 c 0
 408 241 403 168 388 97 c 1
 315 50 240 5 160 -31 c 1
 123 2 74 46 50 71 c 1
 64 144 64 228 64 307 c 0xd8
 64 428 63 548 57 668 c 1
 74 672 l 1
 91 595 l 1
 99 599 l 1xe8
142 332 m 1
 142 123 l 1
 174 90 222 42 249 42 c 0
 316 42 327 160 327 227 c 0
 327 268 327 299 323 340 c 1
 314 352 291 364 238 386 c 1
 207 382 169 353 142 332 c 1
EndSplineSet
EndChar

StartChar: c
Encoding: 28 99 28
Width: 387
Flags: W
VStem: 50 83<138.227 363.806>
LayerCount: 2
Fore
SplineSet
337 92 m 1
 165 -29 l 1
 125 5 89 44 55 84 c 1
 52 129 50 173 50 218 c 0
 50 247 50 307 62 363 c 1
 227 466 l 1
 266 463 302 444 335 422 c 1
 283 343 l 1
 274 340 l 1
 241 369 191 394 154 394 c 1
 136 364 133 295 133 246 c 0
 133 211 135 177 140 147 c 1
 158 118 193 86 224 58 c 1
 256 68 295 89 329 109 c 1
 337 92 l 1
EndSplineSet
EndChar

StartChar: d
Encoding: 29 100 29
Width: 517
Flags: W
HStem: 527 21G<50 109>
VStem: 110 79<136.693 349.836> 386 81<130.232 425.533>
LayerCount: 2
Fore
SplineSet
438 109 m 1
 251 -34 l 1
 201 0 152 35 113 81 c 1
 111 111 110 138 110 166 c 0
 110 210 112 259 116 335 c 1
 158 375 204 418 248 447 c 1
 267 443 l 1
 221 393 210 366 202 346 c 0
 193 323 189 290 189 254 c 0
 189 215 193 171 196 135 c 1
 209 119 225 106 241 94 c 0
 260 80 303 49 321 49 c 0
 326 49 332 52 336 59 c 0
 375 121 386 195 386 267 c 0
 386 311 382 355 374 399 c 1
 311 465 220 546 133 546 c 0
 125 546 112 546 109 545 c 2
 63 527 l 1
 50 543 l 1
 93 567 143 591 188 612 c 1
 278 600 380 524 464 455 c 1
 465 437 467 380 467 328 c 0
 467 239 465 175 438 109 c 1
EndSplineSet
EndChar

StartChar: e
Encoding: 30 101 30
Width: 394
Flags: W
VStem: 50 81<119.099 182.251 193 363.234>
LayerCount: 2
Fore
SplineSet
64 366 m 1
 226 467 l 1
 259 425 300 389 344 358 c 1
 275 292 189 212 131 166 c 1
 131 157 133 148 136 140 c 1
 139 126 196 79 236 61 c 1
 240 62 254 62 259 64 c 2
 333 103 l 1
 338 87 l 1
 284 45 228 5 169 -31 c 1
 129 6 89 43 55 85 c 1
 51 119 50 154 50 188 c 0
 50 248 55 307 64 366 c 1
128 193 m 1
 174 227 226 271 264 312 c 1
 226 336 188 365 156 396 c 0
 156 397 155 397 154 397 c 0
 130 397 128 281 128 193 c 1
EndSplineSet
EndChar

StartChar: f
Encoding: 31 102 31
Width: 394
Flags: W
HStem: 351 37<65 138 226 332> 615 64<184.782 246.251>
VStem: 111 39<512.617 594.423> 140 82<-69.4543 351>
LayerCount: 2
Fore
SplineSet
226 351 m 1xe0
 222 145 l 1
 222 16 215 -64 166 -150 c 2
 116 -238 l 1
 97 -231 l 1
 123 -141 l 2
 139 -87 140 -4 140 128 c 0xd0
 140 143 140 275 139 351 c 1
 50 351 l 1
 65 386 l 1
 138 386 l 1
 138 406 111 494 111 528 c 0
 111 591 162 644 212 679 c 1
 254 679 304 672 336 639 c 1
 289 547 l 1
 279 546 l 1
 264 578 236 615 201 615 c 0
 170 615 150 599 150 568 c 0
 150 551 162 526 171 509 c 2
 221 414 l 2
 226 406 228 397 230 388 c 1
 344 388 l 1
 332 351 l 1
 226 351 l 1xe0
EndSplineSet
EndChar

StartChar: g
Encoding: 32 103 32
Width: 539
Flags: W
HStem: -209 74<255.488 334.423> 450 20G<257.5 302>
VStem: 108 81<97.9047 368.738> 374 81<83.0588 97 123 347.483>
LayerCount: 2
Fore
SplineSet
50 -131 m 1
 95 -100 139 -63 184 -24 c 1
 112 65 l 1
 110 99 108 134 108 168 c 0
 108 235 113 302 123 368 c 1
 176 405 230 438 285 470 c 1
 319 447 359 434 399 425 c 1
 471 465 l 1
 477 459 l 1
 447 397 455 275 455 150 c 0
 455 136 457 122 460 109 c 2
 489 -17 l 1
 438 -81 385 -144 326 -201 c 1
 314 -205 298 -209 290 -209 c 0
 219 -209 150 -169 96 -125 c 1
 61 -144 l 1
 50 -131 l 1
376 97 m 1
 309 50 243 -2 181 -55 c 1
 222 -96 273 -135 329 -135 c 0
 377 -135 403 -91 403 -45 c 0
 403 -23 387 50 376 97 c 1
262 41 m 1
 374 123 l 1
 374 199 376 276 383 351 c 1
 325 359 255 372 207 394 c 1
 191 354 189 304 189 260 c 0
 189 215 190 169 194 124 c 1
 209 95 237 64 262 41 c 1
EndSplineSet
EndChar

StartChar: h
Encoding: 33 104 33
Width: 459
Flags: W
HStem: -26 21G<92.9121 126.867> 458 20G<261 302.5> 669 20G<211.5 229>
VStem: 50 83<126 310.906> 55 12<654.833 675> 61 77<190.812 357.094 371 586.804> 330 79<-5.03406 356.171>
LayerCount: 2
Fore
SplineSet
202 -184 m 1xe6
 266 -129 l 1
 334 -80 330 89 330 193 c 0
 330 221 324 300 320 354 c 1
 294 373 265 390 232 390 c 0
 201 390 163 361 138 341 c 1xe6
 133 126 l 1
 187 49 l 1
 105 -26 l 1
 50 65 l 1xf2
 57 187 61 309 61 431 c 0xe6
 61 512 60 594 55 675 c 1
 67 677 l 1xea
 91 601 l 1
 131 631 211 689 212 689 c 2
 229 678 l 1
 145 601 139 536 139 481 c 2
 138 371 l 1
 171 397 236 443 286 478 c 1
 319 448 360 430 402 417 c 1
 406 360 409 303 409 246 c 0
 409 153 407 53 382 -31 c 1
 337 -97 280 -150 218 -198 c 1
 202 -184 l 1xe6
EndSplineSet
EndChar

StartChar: i
Encoding: 34 105 34
Width: 354
Flags: W
HStem: 455 20G<138 164.5>
VStem: 130 77<93.8498 367>
LayerCount: 2
Fore
SplineSet
63 369 m 1
 50 382 l 1
 84 410 121 443 155 475 c 1
 174 455 193 436 215 420 c 1
 208 360 207 300 207 239 c 0
 207 173 201 118 244 75 c 1
 259 75 288 95 297 102 c 1
 304 83 l 1
 265 46 223 11 181 -21 c 1
 127 55 l 1
 130 108 130 148 130 194 c 0
 130 252 129 308 126 367 c 1
 105 391 l 1
 94 387 76 379 63 369 c 1
223 616 m 1
 166 556 l 1
 145 575 126 596 108 617 c 1
 128 637 150 654 168 675 c 1
 186 654 208 628 223 616 c 1
EndSplineSet
EndChar

StartChar: j
Encoding: 35 106 35
Width: 305
Flags: W
HStem: 455 20G<167.684 201>
VStem: 177 72<-34.0791 350.565>
LayerCount: 2
Fore
SplineSet
227 -44 m 1
 182 -99 129 -151 66 -202 c 1
 50 -184 l 1
 79 -162 108 -139 133 -113 c 0
 175 -71 177 71 177 203 c 0
 177 253 177 322 167 352 c 0
 161 369 142 389 135 389 c 0
 133 389 128 387 127 386 c 2
 98 367 l 1
 84 380 l 1
 190 475 l 1
 212 459 233 441 255 422 c 1
 255 370 254 154 249 26 c 0
 248 1 244 -25 227 -44 c 1
242 615 m 1
 184 555 l 1
 166 570 147 595 130 616 c 1
 191 673 l 1
 207 652 223 633 242 615 c 1
EndSplineSet
EndChar

StartChar: k
Encoding: 36 107 36
Width: 439
Flags: W
HStem: -26 21G<198.474 249.5> 308 35<59 120 199 257.217 277 358> 666 20G<257 295>
VStem: 120 79<107.839 308 343 478.539> 314 72<435.342 493.397>
LayerCount: 2
Fore
SplineSet
376 110 m 1
 389 95 l 1
 346 58 278 13 221 -26 c 1
 114 69 l 1
 118 88 120 109 120 127 c 2
 120 308 l 1
 50 308 l 1
 59 343 l 1
 121 343 l 1
 121 570 120 605 114 669 c 1
 131 673 l 1
 139 649 149 594 149 593 c 1
 190 625 235 661 279 686 c 1
 295 676 l 1
 217 604 205 566 199 498 c 1
 241 530 282 555 326 585 c 1
 354 558 386 519 386 483 c 0
 386 465 376 447 363 434 c 2
 277 343 l 1
 372 343 l 1
 358 308 l 1
 199 308 l 1
 199 128 l 1
 223 104 253 80 281 60 c 1
 313 76 347 89 376 110 c 1
199 343 m 1
 254 343 314 389 314 446 c 0
 314 474 288 500 267 518 c 1
 192 481 199 418 199 343 c 1
EndSplineSet
EndChar

StartChar: l
Encoding: 37 108 37
Width: 280
Flags: W
HStem: 666 20G<186.174 230>
VStem: 50 87<97.489 305.372> 52 17<639.882 668> 58 77<142.255 583.561>
LayerCount: 2
Fore
SplineSet
214 686 m 1xa0
 230 673 l 1
 138 593 135 550 135 391 c 0x90
 135 301 136 212 137 122 c 1
 146 108 163 93 179 81 c 1
 193 85 208 95 219 104 c 1
 229 87 l 1
 101 -20 l 1
 50 56 l 1xc0
 56 164 58 273 58 382 c 0x90
 58 478 57 573 52 668 c 1
 69 672 l 1
 86 594 l 1
 214 686 l 1xa0
EndSplineSet
EndChar

StartChar: m
Encoding: 38 109 38
Width: 850
Flags: W
HStem: -26 21G<415.5 445.562> 455 20G<137.129 169.5 312.343 357 566.5 606.5>
VStem: 135 76<82.9089 349> 382 76<85.7607 345.453> 626 78<96.5411 363.718>
LayerCount: 2
Fore
SplineSet
211 376 m 1
 338 475 l 1
 376 452 416 432 458 418 c 1
 458 379 l 1
 502 409 546 440 587 474 c 1
 626 453 672 428 708 418 c 1
 704 361 704 304 704 247 c 2
 704 126 l 1
 715 110 727 93 741 79 c 1
 761 86 769 89 788 105 c 1
 800 88 l 1
 674 -19 l 1
 664 0 635 35 615 60 c 1
 621 102 626 135 626 274 c 0
 626 300 625 324 623 342 c 0
 619 369 553 383 523 391 c 1
 500 379 479 367 458 353 c 1
 458 135 l 2
 458 117 464 104 508 47 c 1
 422 -26 l 1
 409 0 386 26 368 46 c 1
 377 85 382 127 382 248 c 0
 382 281 381 314 377 347 c 1
 352 369 306 382 272 391 c 1
 211 349 l 1
 211 152 l 2
 211 105 209 112 260 48 c 1
 177 -22 l 1
 128 58 l 1
 133 98 135 138 135 177 c 0
 135 240 134 302 131 365 c 1
 105 391 l 1
 62 367 l 1
 50 379 l 1
 161 472 l 1
 178 455 211 421 211 420 c 2
 211 376 l 1
EndSplineSet
EndChar

StartChar: n
Encoding: 39 110 39
Width: 603
Flags: W
HStem: 455 15G<153.5 160 325.333 369.5>
VStem: 122 86<82.6094 341> 379 82<93.1875 365.045>
LayerCount: 2
Fore
SplineSet
208 367 m 1
 352 475 l 1
 387 451 425 432 465 417 c 1
 461 374 457 315 457 253 c 1
 461 127 l 1
 470 112 483 82 500 82 c 0
 501 82 507 85 510 87 c 2
 541 109 l 1
 553 93 l 1
 426 -19 l 1
 371 65 l 1
 377 100 379 146 379 195 c 0
 379 249 377 306 374 358 c 1
 345 373 306 382 273 385 c 1
 208 341 l 1
 204 134 l 2
 204 124 208 110 211 106 c 2
 251 52 l 1
 164 -23 l 1
 150 2 134 25 115 46 c 1
 123 92 126 150 126 211 c 0
 126 263 124 316 122 365 c 1
 98 388 l 1
 63 368 l 1
 50 380 l 1
 84 410 153 470 154 470 c 0
 166 457 189 439 208 425 c 1
 208 367 l 1
EndSplineSet
EndChar

StartChar: o
Encoding: 40 111 40
Width: 447
Flags: W
HStem: -28 21G<131.5 188.5> 461 20G<215.5 266.5>
VStem: 50 81<124.13 312.651> 318 79<113.562 358.334>
LayerCount: 2
Fore
SplineSet
149 -28 m 1
 114 2 78 34 50 68 c 1
 50 157 55 266 68 364 c 1
 129 399 187 439 244 481 c 1
 289 451 338 426 392 415 c 1
 395 377 397 340 397 302 c 0
 397 231 391 161 375 92 c 1
 303 46 228 4 149 -28 c 1
252 44 m 0
 258 44 269 57 274 63 c 0
 323 122 318 213 318 356 c 1
 273 359 214 381 169 401 c 1
 149 367 131 306 131 211 c 0
 131 178 133 147 137 123 c 1
 167 86 207 50 252 44 c 0
EndSplineSet
EndChar

StartChar: p
Encoding: 41 112 41
Width: 518
Flags: W
HStem: -214 21G<116 163.364> 37 69<204 260.891> 458 20G<321.5 362.5>
VStem: 80 79<417.5 495> 116 91<-170 35.9956> 126 78<-170 37 106 360.26> 387 81<91.8419 360.477>
LayerCount: 2
Fore
SplineSet
207 -170 m 1xea
 127 -214 l 1
 116 -207 l 1xea
 120 -124 125 -8 125 47 c 1
 102 47 79 40 61 24 c 1
 50 38 l 1
 75 61 112 95 126 105 c 1
 126 352 l 1xe6
 92 399 80 413 80 422 c 0
 80 451 133 509 163 538 c 1
 177 529 l 1
 167 517 159 503 159 487 c 0xf2
 159 458 183 428 205 406 c 0
 205 405 204 384 203 372 c 1
 252 405 298 441 345 478 c 1
 380 450 421 430 463 414 c 1
 466 370 468 326 468 282 c 0
 468 221 467 149 445 89 c 1
 311 -18 l 1
 279 8 243 30 203 37 c 1
 203 -32 204 -101 207 -170 c 1xea
204 347 m 1xe6
 204 106 l 1
 244 106 312 76 361 52 c 1
 377 82 387 135 387 230 c 0
 387 271 384 312 381 353 c 1
 356 366 315 381 285 391 c 1
 256 380 231 364 204 347 c 1xe6
EndSplineSet
EndChar

StartChar: q
Encoding: 42 113 42
Width: 459
Flags: W
HStem: 453 20G<213 252.5 371.833 409>
VStem: 50 79<109.336 362.038> 303 94<-179 45.8758> 311 79<-148.206 93 105.784 365.375>
LayerCount: 2
Fore
SplineSet
397 -179 m 1xe0
 314 -224 l 1
 303 -214 l 1xe0
 307 -116 311 -6 311 93 c 1
 255 47 198 9 137 -29 c 1
 53 65 l 1
 51 94 50 122 50 151 c 0
 50 224 56 298 73 369 c 1
 130 400 188 432 238 473 c 1
 267 455 298 439 331 432 c 1
 401 480 l 1
 409 473 l 1
 394 388 390 253 390 141 c 0xd0
 390 34 390 -74 397 -179 c 1xe0
209 50 m 1
 233 63 279 98 310 121 c 1
 310 201 311 287 315 367 c 1
 264 370 214 383 165 398 c 1
 134 343 129 266 129 200 c 0
 129 181 129 147 130 144 c 1
 130 124 182 74 209 50 c 1
EndSplineSet
EndChar

StartChar: r
Encoding: 43 114 43
Width: 480
Flags: W
HStem: 335 63<323.5 397.5> 454 20G<129.28 161.5>
VStem: 138 79<107.37 365.32>
LayerCount: 2
Fore
SplineSet
217 382 m 1
 326 469 l 1
 341 442 368 398 392 398 c 0
 403 398 421 408 430 413 c 1
 429 400 l 1
 370 345 l 2
 361 337 349 335 337 335 c 0
 310 335 277 362 254 384 c 1
 238 372 223 359 217 350 c 1
 217 152 l 2
 217 120 259 83 290 60 c 1
 379 102 l 1
 381 83 l 1
 235 -21 l 1
 198 8 165 41 132 75 c 1
 138 134 138 184 138 245 c 0
 138 305 135 373 129 365 c 1
 120 373 110 380 100 387 c 1
 62 371 l 1
 50 381 l 1
 151 474 l 1
 172 453 194 433 217 414 c 1
 217 382 l 1
EndSplineSet
EndChar

StartChar: s
Encoding: 44 115 44
Width: 535
Flags: W
HStem: 47 64<128.514 208.594> 459 20G<270.196 335.217>
VStem: 142 79<246.128 374.888> 374 78<49.7764 222.872>
LayerCount: 2
Fore
SplineSet
270 244 m 2
 393 300 l 1
 415 293 432 278 449 262 c 1
 451 236 452 210 452 185 c 0
 452 139 448 94 436 50 c 1
 382 26 327 1 276 -30 c 1
 242 3 190 47 148 47 c 0
 118 47 91 31 59 3 c 1
 50 12 l 1
 85 49 129 111 191 111 c 0
 216 111 241 103 263 89 c 2
 344 35 l 2
 345 34 346 34 348 34 c 0
 371 34 374 108 374 140 c 0
 374 216 347 236 322 236 c 0
 308 236 299 233 287 226 c 2
 185 168 l 1
 170 187 154 213 142 235 c 1
 142 284 143 332 148 377 c 1
 300 479 l 1
 381 433 l 2
 389 429 397 427 407 427 c 0
 430 427 453 440 479 457 c 1
 485 441 l 1
 393 363 l 1
 321 367 267 390 241 415 c 1
 221 396 221 359 221 336 c 0
 221 303 228 242 253 242 c 0
 259 242 265 242 270 244 c 2
EndSplineSet
EndChar

StartChar: t
Encoding: 45 116 45
Width: 423
Flags: W
HStem: 351 35<66 139 219 309>
VStem: 139 79<105.873 351 386 558>
LayerCount: 2
Fore
SplineSet
252 641 m 1
 266 627 l 1
 239 601 l 2
 234 596 231 589 230 582 c 0
 219 518 218 451 218 386 c 1
 326 386 l 1
 309 351 l 1
 219 351 l 1
 220 123 l 1
 246 100 280 68 300 68 c 0
 315 68 336 77 370 100 c 1
 373 78 l 1
 236 -21 l 1
 139 62 l 2
 139 63 139 254 140 351 c 1
 50 351 l 1
 66 386 l 1
 139 386 l 1
 139 558 l 1
 252 641 l 1
EndSplineSet
EndChar

StartChar: u
Encoding: 46 117 46
Width: 606
Flags: W
HStem: -26 21G<209 249.08> 454 20G<135.773 169>
VStem: 139 75<119.673 399.872> 378 92<228.703 424> 381 76<115 424>
LayerCount: 2
Fore
SplineSet
463 468 m 1xf0
 470 462 l 1xf0
 460 383 457 304 457 225 c 0
 457 175 456 83 497 83 c 0
 507 83 540 98 550 103 c 1
 556 88 l 1
 514 54 473 19 434 -18 c 1
 426 -16 l 1
 407 16 387 51 375 87 c 1
 307 42 222 -26 222 -26 c 1
 196 -9 134 36 97 48 c 1
 127 100 139 191 139 264 c 0
 139 309 139 365 103 396 c 1
 65 376 l 1
 50 386 l 1
 161 474 l 1
 177 455 193 436 213 421 c 1
 213 399 214 378 214 356 c 0
 214 270 211 186 188 104 c 1
 289 56 l 1
 377 115 l 1
 380 165 381 215 381 264 c 0xe8
 381 316 380 369 378 424 c 1
 463 468 l 1xf0
EndSplineSet
EndChar

StartChar: v
Encoding: 47 118 47
Width: 488
Flags: W
HStem: -28 21G<175.5 228.719> 513 20G<115 144 289.233 335>
VStem: 50 78<402 491.5> 91 83<101.334 363.077 374 374> 358 80<115.81 362.552>
LayerCount: 2
Fore
SplineSet
95 231 m 0xd8
 95 262 93 300 91 345 c 1xd8
 91 368 50 386 50 418 c 0
 50 449 100 503 130 533 c 1
 144 529 l 1
 135 515 128 500 128 483 c 0xe8
 128 460 150 435 174 408 c 1
 174 374 l 1
 317 477 l 1
 353 453 391 432 432 416 c 1
 438 350 438 316 438 245 c 0
 438 208 423 126 406 86 c 1
 191 -28 l 1
 160 5 124 37 88 66 c 1
 93 121 95 167 95 231 c 0xd8
174 348 m 1
 171 155 l 2
 170 130 185 108 205 93 c 1
 216 93 247 49 284 49 c 0
 344 49 358 175 358 243 c 0
 358 281 355 320 350 358 c 1
 327 379 296 390 265 396 c 1
 237 394 202 369 174 348 c 1
EndSplineSet
EndChar

StartChar: w
Encoding: 48 119 48
Width: 749
Flags: W
HStem: -27 20G<134.5 163 449 508.4> 451 82G<115 144 278.5 317.5 538.427 586.5>
VStem: 50 78<402 491.5> 94 77<85.6172 362.586> 345 77<107.218 339.171> 616 83<126.259 349.368>
LayerCount: 2
Fore
SplineSet
424 368 m 1xec
 566 471 l 1
 607 447 649 425 692 405 c 1
 697 377 699 313 699 268 c 0
 699 175 680 135 658 72 c 1
 471 -28 l 1
 427 -1 382 24 337 46 c 1
 342 105 345 164 345 222 c 0
 345 262 344 302 340 341 c 1
 298 370 264 392 246 392 c 0
 225 392 193 362 172 348 c 1
 172 314 171 222 171 158 c 0
 171 117 193 79 218 48 c 1
 143 -27 l 1
 126 2 108 30 84 52 c 1
 92 103 94 155 94 207 c 0xdc
 94 253 95 299 91 345 c 0
 88 373 50 386 50 418 c 0
 50 449 100 503 130 533 c 1
 144 529 l 1
 135 515 128 500 128 483 c 0
 128 460 150 435 174 408 c 1
 174 376 l 1
 217 406 260 437 297 473 c 1
 338 447 381 425 425 405 c 1
 424 368 l 1xec
504 386 m 1
 482 386 441 353 424 341 c 1
 423 304 422 270 422 235 c 0
 422 209 423 182 425 154 c 0
 427 106 492 44 554 44 c 0
 614 44 616 189 616 264 c 0
 616 292 612 317 604 348 c 1
 575 366 536 381 504 386 c 1
EndSplineSet
EndChar

StartChar: x
Encoding: 49 120 49
Width: 460
Flags: W
HStem: -188 49<148.769 174.2> 453 20G<140 170.5>
VStem: 50 55<-101.388 -34.4813> 151 79<119.205 345.592>
LayerCount: 2
Fore
SplineSet
232 376 m 1
 341 465 l 1
 358 437 383 417 410 398 c 1
 343 339 l 1
 315 353 296 381 284 390 c 1
 269 381 242 357 235 347 c 1
 228 317 230 285 230 260 c 0
 230 213 232 164 235 117 c 1
 253 98 292 59 311 59 c 1
 316 60 324 59 333 64 c 2
 396 98 l 1
 399 80 l 1
 250 -25 l 1
 225 3 196 27 166 49 c 1
 138 23 105 -15 105 -54 c 0
 105 -113 175 -134 227 -139 c 1
 227 -148 l 1
 163 -188 l 1
 117 -177 50 -152 50 -98 c 0
 50 -47 105 15 144 59 c 1
 150 101 151 150 151 192 c 0
 151 245 152 300 148 353 c 1
 134 368 116 386 108 386 c 0
 101 386 72 368 67 368 c 1
 54 377 l 1
 87 411 122 442 158 473 c 1
 183 451 221 416 234 407 c 1
 232 376 l 1
EndSplineSet
EndChar

StartChar: y
Encoding: 50 121 50
Width: 492
Flags: W
HStem: -27 21G<133.5 162> 504 20G<115.5 144 289.208 334.5>
VStem: 50 78<392.5 482.5> 94 78<81.3057 353.247> 355 87<9.76585 357.479>
LayerCount: 2
Fore
SplineSet
94 255 m 1xd8
 93 286 95 290 91 336 c 0
 88 364 50 375 50 410 c 0
 50 439 101 495 130 524 c 1
 144 520 l 1
 135 506 128 491 128 474 c 0xe8
 128 451 150 426 174 399 c 1
 174 367 l 1
 316 473 l 1
 353 451 390 429 431 414 c 1
 438 354 442 284 442 228 c 0
 442 148 434 54 412 -23 c 0
 399 -69 295 -168 227 -219 c 1
 189 -202 l 1
 223 -185 256 -166 283 -140 c 0
 356 -68 355 76 355 189 c 0
 355 245 350 301 344 356 c 1
 320 371 291 386 264 391 c 1
 249 391 205 363 175 340 c 1
 174 276 172 259 172 152 c 0
 172 114 187 86 217 48 c 1
 142 -27 l 1
 125 2 103 34 83 52 c 1
 93 113 94 178 94 255 c 1xd8
EndSplineSet
EndChar

StartChar: z
Encoding: 51 122 51
Width: 421
Flags: W
HStem: -215 61<172.767 210> 181 11<154 159.465> 451 20G<212.5 260.5>
VStem: 261 80<303.5 391> 297 74<-88.6316 128.976>
LayerCount: 2
Fore
SplineSet
347 -99 m 1xe8
 210 -215 l 1
 146 -215 61 -182 50 -116 c 1
 57 -89 104 -25 137 13 c 0
 179 62 219 102 264 147 c 1
 229 163 193 177 154 181 c 1
 154 192 l 1
 155 192 202 236 227 259 c 0
 243 274 261 292 261 315 c 0
 261 354 216 388 188 388 c 0
 169 388 126 353 104 335 c 1
 93 347 l 1
 138 392 186 434 239 471 c 1
 282 449 341 412 341 370 c 0xf0
 341 357 335 343 326 334 c 2
 245 247 l 1
 282 234 324 218 357 198 c 1
 368 155 371 109 371 64 c 0
 371 9 361 -46 347 -99 c 1xe8
282 130 m 1
 218 75 129 -3 129 -73 c 0
 129 -115 192 -154 240 -154 c 0
 281 -154 297 -54 297 20 c 0xe8
 297 57 293 94 282 130 c 1
EndSplineSet
EndChar
